<svg width="16" height="16" filter="drop-shadow(0 1px 39px #008ae5)" viewBox="0 0 16 16" xmlns="http://www.w3.org/2000/svg"><style/><g id="Page-1" stroke="none" stroke-width="1" fill="none" fill-rule="evenodd"><g id="01---anasayfa" transform="translate(-1234 -830)" fill="#FFF" fill-rule="nonzero"><g id="most-popular" transform="translate(164 825)"><g id="slider-nav" transform="translate(1070 5)"><g id="arrow-right-solid-copy" transform="matrix(-1 0 0 1 16 0)"><path fill="#009aff" d="M6.788 1.092l.792-.81a.837.837 0 011.208 0l6.927 7.097a.889.889 0 010 1.238L8.788 15.72a.837.837 0 01-1.208 0l-.792-.811a.893.893 0 01.015-1.253l4.294-4.194H.855A.864.864 0 010 8.584V7.416c0-.486.381-.877.855-.877h10.242L6.803 2.345a.887.887 0 01-.015-1.253z" id="Path"/></g></g></g></g></g></svg>