<svg width="22" height="22" viewBox="0 0 22 22" xmlns="http://www.w3.org/2000/svg" xmlns:xlink="http://www.w3.org/1999/xlink"><defs><filter x="-19.4%" y="-13.9%" width="138.9%" height="138.9%" filterUnits="objectBoundingBox" id="a"><feOffset dy="1" in="SourceAlpha" result="shadowOffsetOuter1"/><feGaussianBlur stdDeviation="1" in="shadowOffsetOuter1" result="shadowBlurOuter1"/><feColorMatrix values="0 0 0 0 0 0 0 0 0 0 0 0 0 0 0 0 0 0 0.4 0" in="shadowBlurOuter1"/></filter><path d="M9 2c-4.972 0-9 4.028-9 9s4.028 9 9 9 9-4.028 9-9-4.028-9-9-9zm0 16.258A7.256 7.256 0 011.742 11 7.256 7.256 0 019 3.742 7.256 7.256 0 0116.258 11 7.256 7.256 0 019 18.258zM7.839 6.79V11H5.407a.436.436 0 00-.308.744l3.593 3.593c.17.17.446.17.616 0l3.593-3.593a.435.435 0 00-.308-.744H10.16V6.79a.437.437 0 00-.435-.435H8.274a.437.437 0 00-.435.435z" id="b"/></defs><g transform="translate(2 -1)" fill="none"><use fill="#000" filter="url(#a)" xlink:href="#b"/><use fill="#47505A" xlink:href="#b"/></g></svg>