<svg width="46" height="30" viewBox="0 0 46 30" xmlns="http://www.w3.org/2000/svg" xmlns:xlink="http://www.w3.org/1999/xlink"><defs><path id="b" d="M28.004 24.744H16.362V3.822h11.642z"/><path d="M16.92 13.535c0 4.245 1.986 8.025 5.08 10.462a13.248 13.248 0 01-8.222 2.844C6.43 26.841.474 20.884.474 13.535.474 6.187 6.43.23 13.778.23c3.104 0 5.96 1.064 8.223 2.845a13.284 13.284 0 00-5.082 10.461" id="c"/><filter x="-8.9%" y="-14.3%" width="118.3%" height="128.6%" filterUnits="objectBoundingBox" id="a"><feOffset dy="1" in="SourceAlpha" result="shadowOffsetOuter1"/><feGaussianBlur stdDeviation=".5" in="shadowOffsetOuter1" result="shadowBlurOuter1"/><feColorMatrix values="0 0 0 0 0 0 0 0 0 0 0 0 0 0 0 0 0 0 0.3 0" in="shadowBlurOuter1" result="shadowMatrixOuter1"/><feMerge><feMergeNode in="shadowMatrixOuter1"/><feMergeNode in="SourceGraphic"/></feMerge></filter></defs><g filter="url(#a)" transform="translate(.39)" fill="none" fill-rule="evenodd"><g fill="#282D35"><use xlink:href="#b"/><use xlink:href="#b"/></g><g transform="matrix(1 0 0 -1 .189 27.816)"><use fill="#282D35" xlink:href="#c"/><use fill-opacity=".2" fill="#000" xlink:href="#c"/></g><path d="M30.4 27.587c-3.103 0-5.96-1.063-8.223-2.845a13.282 13.282 0 005.082-10.46c0-4.245-1.987-8.026-5.082-10.462A13.252 13.252 0 0130.4.975c7.348 0 13.305 5.957 13.305 13.306 0 7.349-5.957 13.306-13.305 13.306z" fill="#32373F"/></g></svg>