<svg width="18" height="12" viewBox="0 0 18 12" xmlns="http://www.w3.org/2000/svg"><path d="M9 2.5c-.331.005-.66.058-.976.156.146.258.224.548.226.844A1.75 1.75 0 016.5 5.25a1.731 1.731 0 01-.844-.226A3.49 3.49 0 109 2.5zm8.891 3.044C16.197 2.237 12.841 0 9 0 5.158 0 1.802 2.239.109 5.544a1.01 1.01 0 000 .912C1.803 9.763 5.159 12 9 12c3.842 0 7.198-2.239 8.891-5.544a1.01 1.01 0 000-.912zM9 10.5c-3.083 0-5.91-1.719-7.435-4.5C3.09 3.219 5.917 1.5 9 1.5c3.083 0 5.91 1.719 7.435 4.5C14.91 8.781 12.083 10.5 9 10.5z" fill="#283544"/></svg>