<svg width="14" height="15" viewBox="0 0 14 15" xmlns="http://www.w3.org/2000/svg"><path d="M13.808 12.605l-2.726-2.726a.656.656 0 00-.465-.192h-.445a5.66 5.66 0 001.203-3.5A5.686 5.686 0 005.687.5 5.686 5.686 0 000 6.187a5.686 5.686 0 005.687 5.688 5.66 5.66 0 003.5-1.203v.445c0 .175.069.342.192.465l2.726 2.726a.654.654 0 00.927 0l.773-.774a.66.66 0 00.003-.93zm-8.12-2.918a3.498 3.498 0 01-3.5-3.5c0-1.933 1.563-3.5 3.5-3.5 1.932 0 3.5 1.564 3.5 3.5 0 1.933-1.565 3.5-3.5 3.5z" fill="#fff" fill-opacity=".9"/></svg>