<svg width="57" height="36" viewBox="0 0 57 36" xmlns="http://www.w3.org/2000/svg" xmlns:xlink="http://www.w3.org/1999/xlink"><defs><filter x="-7.4%" y="-5.8%" width="114.8%" height="123.1%" filterUnits="objectBoundingBox" id="v"><feOffset dy="1" in="SourceAlpha" result="shadowOffsetOuter1"/><feColorMatrix values="0 0 0 0 0 0 0 0 0 0 0 0 0 0 0 0 0 0 0.5 0" in="shadowOffsetOuter1"/></filter><filter x="-7.3%" y="-5.8%" width="114.5%" height="123.1%" filterUnits="objectBoundingBox" id="r"><feOffset dy="1" in="SourceAlpha" result="shadowOffsetOuter1"/><feColorMatrix values="0 0 0 0 0 0 0 0 0 0 0 0 0 0 0 0 0 0 0.5 0" in="shadowOffsetOuter1"/></filter><filter x="-21.1%" y="-12.4%" width="142.2%" height="137.1%" filterUnits="objectBoundingBox" id="e"><feGaussianBlur stdDeviation=".5" in="SourceAlpha" result="shadowBlurInner1"/><feOffset dy="1" in="shadowBlurInner1" result="shadowOffsetInner1"/><feComposite in="shadowOffsetInner1" in2="SourceAlpha" operator="arithmetic" k2="-1" k3="1" result="shadowInnerInner1"/><feColorMatrix values="0 0 0 0 0 0 0 0 0 0 0 0 0 0 0 0 0 0 0.5 0" in="shadowInnerInner1"/></filter><filter x="-9.4%" y="-6.2%" width="118.9%" height="124.8%" filterUnits="objectBoundingBox" id="f"><feOffset dy="1" in="SourceAlpha" result="shadowOffsetOuter1"/><feColorMatrix values="0 0 0 0 1 0 0 0 0 1 0 0 0 0 1 0 0 0 0.03 0" in="shadowOffsetOuter1"/></filter><filter x="-18.9%" y="-12.4%" width="137.7%" height="137.2%" filterUnits="objectBoundingBox" id="h"><feGaussianBlur stdDeviation=".5" in="SourceAlpha" result="shadowBlurInner1"/><feOffset dy="1" in="shadowBlurInner1" result="shadowOffsetInner1"/><feComposite in="shadowOffsetInner1" in2="SourceAlpha" operator="arithmetic" k2="-1" k3="1" result="shadowInnerInner1"/><feColorMatrix values="0 0 0 0 0 0 0 0 0 0 0 0 0 0 0 0 0 0 0.5 0" in="shadowInnerInner1"/></filter><filter x="-9.4%" y="-6.2%" width="118.9%" height="124.8%" filterUnits="objectBoundingBox" id="i"><feOffset dy="1" in="SourceAlpha" result="shadowOffsetOuter1"/><feColorMatrix values="0 0 0 0 1 0 0 0 0 1 0 0 0 0 1 0 0 0 0.03 0" in="shadowOffsetOuter1"/></filter><filter x="-10.5%" y="-6.2%" width="121.1%" height="124.8%" filterUnits="objectBoundingBox" id="c"><feOffset dy="1" in="SourceAlpha" result="shadowOffsetOuter1"/><feColorMatrix values="0 0 0 0 1 0 0 0 0 1 0 0 0 0 1 0 0 0 0.03 0" in="shadowOffsetOuter1"/></filter><filter x="-1.7%" y="-1.4%" width="103.4%" height="105.7%" filterUnits="objectBoundingBox" id="a"><feOffset dy="1" in="SourceAlpha" result="shadowOffsetOuter1"/><feColorMatrix values="0 0 0 0 0 0 0 0 0 0 0 0 0 0 0 0 0 0 0.5 0" in="shadowOffsetOuter1"/></filter><filter x="-8.1%" y="-5.7%" width="116.2%" height="122.9%" filterUnits="objectBoundingBox" id="l"><feOffset dy="1" in="SourceAlpha" result="shadowOffsetOuter1"/><feColorMatrix values="0 0 0 0 0 0 0 0 0 0 0 0 0 0 0 0 0 0 0.5 0" in="shadowOffsetOuter1"/></filter><filter x="-8%" y="-5.6%" width="116%" height="122.6%" filterUnits="objectBoundingBox" id="n"><feOffset dy="1" in="SourceAlpha" result="shadowOffsetOuter1"/><feColorMatrix values="0 0 0 0 0 0 0 0 0 0 0 0 0 0 0 0 0 0 0.5 0" in="shadowOffsetOuter1"/></filter><filter x="-7.8%" y="-5.5%" width="115.6%" height="122%" filterUnits="objectBoundingBox" id="p"><feOffset dy="1" in="SourceAlpha" result="shadowOffsetOuter1"/><feColorMatrix values="0 0 0 0 0 0 0 0 0 0 0 0 0 0 0 0 0 0 0.5 0" in="shadowOffsetOuter1"/></filter><filter x="-18.9%" y="-12.4%" width="137.7%" height="137.2%" filterUnits="objectBoundingBox" id="k"><feGaussianBlur stdDeviation=".5" in="SourceAlpha" result="shadowBlurInner1"/><feOffset dy="1" in="shadowBlurInner1" result="shadowOffsetInner1"/><feComposite in="shadowOffsetInner1" in2="SourceAlpha" operator="arithmetic" k2="-1" k3="1" result="shadowInnerInner1"/><feColorMatrix values="0 0 0 0 0 0 0 0 0 0 0 0 0 0 0 0 0 0 0.5 0" in="shadowInnerInner1"/></filter><filter x="-23.9%" y="-4.5%" width="147.9%" height="117.9%" filterUnits="objectBoundingBox" id="t"><feOffset dy="1" in="SourceAlpha" result="shadowOffsetOuter1"/><feColorMatrix values="0 0 0 0 0 0 0 0 0 0 0 0 0 0 0 0 0 0 0.5 0" in="shadowOffsetOuter1"/></filter><path d="M44.386 2.342h-3.887v1.746c.17-.195.408-.35.715-.458.307-.112.639-.166.996-.166.577 0 1.064.13 1.454.386.39.256.678.603.866 1.032.188.433.281.91.281 1.429 0 .945-.263 1.692-.793 2.24-.53.549-1.274.827-2.238.827-.653 0-1.22-.116-1.7-.35a2.613 2.613 0 01-1.11-.97c-.26-.416-.4-.896-.415-1.444h2.042c.04.278.151.505.335.685.184.18.433.267.751.267.368 0 .642-.119.826-.353.184-.235.275-.549.275-.942 0-.375-.098-.664-.293-.866-.195-.202-.469-.307-.819-.307-.267 0-.494.058-.671.177a.89.89 0 00-.368.459h-2.028V.509h5.78v1.833z" id="o"/><path d="M10.312 5.26a4.05 4.05 0 00-.852-.493c-.332-.147-.67-.311-1.011-.497a2.47 2.47 0 01-.86-.782c-.233-.337-.35-.744-.35-1.21 0-.765.268-1.336.808-1.712C8.587.19 9.24 0 10.001 0a4.998 4.998 0 011.28.164 1.5 1.5 0 01.626.307c.16.143.242.311.242.51 0 .19-.06.39-.178.592-.116.203-.28.307-.492.307-.087 0-.268-.07-.55-.203a2.077 2.077 0 00-.928-.203c-.36 0-.631.065-.809.19-.181.125-.268.28-.268.458 0 .164.087.316.255.454.169.138.38.255.631.35.251.095.528.225.826.376.298.156.575.324.825.506.251.181.463.44.631.773.169.333.255.71.255 1.133 0 .743-.246 1.322-.743 1.733-.497.415-1.15.622-1.953.622-.7 0-1.306-.143-1.824-.432-.519-.29-.778-.614-.778-.973 0-.203.073-.401.22-.605.147-.203.32-.302.514-.302.108 0 .23.043.363.13.134.086.255.185.368.29.112.107.268.202.47.289.204.086.416.13.636.13.281 0 .528-.061.735-.178a.578.578 0 00.311-.536c0-.238-.12-.44-.354-.622z" id="g"/><path d="M49.903 2.302c-.166-.18-.405-.27-.715-.27-.473 0-.808.216-1.007.653-.198.436-.292 1.104-.274 2.01.137-.336.375-.596.715-.787a2.353 2.353 0 011.18-.289c.815 0 1.457.245 1.93.74.473.494.707 1.198.707 2.118 0 .577-.119 1.093-.353 1.54a2.48 2.48 0 01-1.047 1.047c-.462.249-1.014.372-1.656.372-1.263 0-2.132-.39-2.616-1.173-.48-.783-.722-1.866-.722-3.251 0-1.595.257-2.771.769-3.525.512-.755 1.35-1.13 2.504-1.13.913 0 1.606.26 2.078.776.473.516.736 1.173.794 1.96h-1.955c-.055-.347-.166-.61-.332-.79zM48.38 7.296c.213.23.52.35.927.35.368 0 .653-.101.863-.307.209-.202.31-.501.31-.891s-.105-.69-.318-.899c-.213-.209-.501-.31-.866-.31-.35 0-.642.101-.88.3-.238.198-.354.483-.354.848 0 .371.109.674.318.909z" id="q"/><path d="M27.415 3.721L14.848.048 14.823.04a1.32 1.32 0 00-.65 0l-.014.003L1.577 3.721A2.14 2.14 0 000 5.781v17.922a6.201 6.201 0 003.392 5.546l8.23 4.839.058.032a6.257 6.257 0 005.629 0l.029-.014L25.6 29.25a6.201 6.201 0 003.391-5.546V5.781c0-.963-.646-1.807-1.577-2.06z" id="b"/><path d="M37.721 18.023c.307.383.458.826.458 1.332 0 .74-.245 1.32-.74 1.735-.494.415-1.197.624-2.117.624h-4.02v-8.641h3.922c.88 0 1.559.19 2.042.573.48.383.722.928.722 1.639 0 .523-.137.956-.415 1.302a1.909 1.909 0 01-1.086.678c.516.12.927.372 1.234.758zm-4.33-1.418h1.368c.725 0 1.086-.31 1.086-.927 0-.62-.372-.927-1.111-.927H33.39v1.854zm2.649 2.454c0-.31-.101-.552-.307-.725-.202-.177-.494-.264-.866-.264h-1.48v1.941h1.49c.777.004 1.163-.317 1.163-.952z" id="s"/><path d="M14.106.575c0-.168.084-.296.252-.385a1.29 1.29 0 01.607-.132c.234 0 .438.044.606.132.168.089.252.217.252.385v6.058h2.522c.155 0 .274.075.363.22.088.147.132.324.132.532 0 .208-.044.385-.132.53-.089.147-.208.222-.363.222H14.85A.968.968 0 0114.319 8a.44.44 0 01-.222-.394l.01-7.03z" id="d"/><path d="M41.37 13.073v8.638h-2.09v-8.638h2.09zm-1.675-2.284a.852.852 0 01.624-.257c.253 0 .462.087.628.257.166.17.249.382.249.635a.851.851 0 01-.877.866.866.866 0 01-.88-.866.85.85 0 01.256-.635z" id="u"/><path d="M3.263 5.26a4.05 4.05 0 00-.851-.493c-.333-.147-.67-.311-1.012-.497a2.47 2.47 0 01-.86-.782C.307 3.15.19 2.744.19 2.278.19 1.513.458.942.998.566 1.538.19 2.191 0 2.952 0a4.998 4.998 0 011.28.164c.254.065.462.164.626.307.16.143.242.311.242.51 0 .19-.06.39-.177.592-.117.203-.281.307-.493.307-.086 0-.268-.07-.549-.203a2.077 2.077 0 00-.93-.203c-.358 0-.63.065-.807.19-.182.125-.268.28-.268.458 0 .164.086.316.255.454.168.138.38.255.63.35.251.095.528.225.826.376a6.7 6.7 0 01.826.506c.25.181.462.44.63.773.17.333.256.71.256 1.133 0 .743-.247 1.322-.744 1.733-.497.415-1.15.622-1.953.622-.7 0-1.305-.143-1.824-.432C.259 7.347 0 7.023 0 6.664c0-.203.073-.401.22-.605.147-.203.32-.302.515-.302.108 0 .229.043.363.13.134.086.255.185.367.29.113.107.268.202.471.289.203.086.415.13.636.13.28 0 .527-.061.734-.178a.578.578 0 00.311-.536c0-.238-.12-.44-.354-.622z" id="j"/><path id="w" d="M49.015 13.073v1.663H46.67v6.978h-2.1v-6.978h-2.32v-1.663h6.765z"/><path d="M34.881 3.28c0-.668-.288-1.003-.866-1.003-.324 0-.562.115-.714.343-.152.227-.235.58-.249 1.064H31.01c.05-1.05.368-1.84.952-2.37C32.551.782 33.29.52 34.185.52c.938 0 1.642.238 2.118.707.476.472.715 1.086.715 1.844 0 .84-.322 1.66-.967 2.46a9.06 9.06 0 01-2.31 2.035h3.41v1.686h-6.156V7.689c2.591-1.847 3.886-3.316 3.886-4.41z" id="m"/></defs><g fill="none" fill-rule="evenodd"><use fill="#000" filter="url(#a)" xlink:href="#b"/><use fill="#282D35" xlink:href="#b"/><g transform="translate(5.3 13.052)"><use fill="#000" filter="url(#c)" xlink:href="#d"/><use fill="#0F1116" xlink:href="#d"/><use fill="#000" filter="url(#e)" xlink:href="#d"/></g><g transform="translate(5.3 13.052)"><use fill="#000" filter="url(#f)" xlink:href="#g"/><use fill="#0F1116" xlink:href="#g"/><use fill="#000" filter="url(#h)" xlink:href="#g"/></g><g transform="translate(5.3 13.052)"><use fill="#000" filter="url(#i)" xlink:href="#j"/><use fill="#0F1116" xlink:href="#j"/><use fill="#000" filter="url(#k)" xlink:href="#j"/></g><g transform="translate(4.505 5.052)"><use fill="#000" filter="url(#l)" xlink:href="#m"/><use fill="#282D35" xlink:href="#m"/></g><g transform="translate(4.505 5.052)"><use fill="#000" filter="url(#n)" xlink:href="#o"/><use fill="#282D35" xlink:href="#o"/></g><g transform="translate(4.505 5.052)"><use fill="#000" filter="url(#p)" xlink:href="#q"/><use fill="#282D35" xlink:href="#q"/></g><g transform="translate(4.505 5.052)"><use fill="#000" filter="url(#r)" xlink:href="#s"/><use fill="#282D35" xlink:href="#s"/></g><g transform="translate(4.505 5.052)"><use fill="#000" filter="url(#t)" xlink:href="#u"/><use fill="#282D35" xlink:href="#u"/></g><g transform="translate(4.505 5.052)"><use fill="#000" filter="url(#v)" xlink:href="#w"/><use fill="#282D35" xlink:href="#w"/></g></g></svg>