<svg width="70" height="24" viewBox="0 0 70 24" xmlns="http://www.w3.org/2000/svg" xmlns:xlink="http://www.w3.org/1999/xlink"><defs><filter x="-22.4%" y="-4.7%" width="144.7%" height="118.8%" filterUnits="objectBoundingBox" id="a"><feOffset dy="1" in="SourceAlpha" result="shadowOffsetOuter1"/><feGaussianBlur stdDeviation=".5" in="shadowOffsetOuter1" result="shadowBlurOuter1"/><feColorMatrix values="0 0 0 0 0 0 0 0 0 0 0 0 0 0 0 0 0 0 0.3 0" in="shadowBlurOuter1"/></filter><filter x="-12.1%" y="-4.6%" width="124.2%" height="118.2%" filterUnits="objectBoundingBox" id="c"><feOffset dy="1" in="SourceAlpha" result="shadowOffsetOuter1"/><feGaussianBlur stdDeviation=".5" in="shadowOffsetOuter1" result="shadowBlurOuter1"/><feColorMatrix values="0 0 0 0 0 0 0 0 0 0 0 0 0 0 0 0 0 0 0.3 0" in="shadowBlurOuter1"/></filter><filter x="-10.1%" y="-4.7%" width="120.3%" height="118.8%" filterUnits="objectBoundingBox" id="e"><feOffset dy="1" in="SourceAlpha" result="shadowOffsetOuter1"/><feGaussianBlur stdDeviation=".5" in="shadowOffsetOuter1" result="shadowBlurOuter1"/><feColorMatrix values="0 0 0 0 0 0 0 0 0 0 0 0 0 0 0 0 0 0 0.3 0" in="shadowBlurOuter1"/></filter><filter x="-10.3%" y="-4.7%" width="120.6%" height="118.8%" filterUnits="objectBoundingBox" id="g"><feOffset dy="1" in="SourceAlpha" result="shadowOffsetOuter1"/><feGaussianBlur stdDeviation=".5" in="shadowOffsetOuter1" result="shadowBlurOuter1"/><feColorMatrix values="0 0 0 0 0 0 0 0 0 0 0 0 0 0 0 0 0 0 0.3 0" in="shadowBlurOuter1"/></filter><path id="b" d="M29.425 21.66h-5.5L27.364.385h5.5z"/><path d="M49.366.906C48.28.476 46.56 0 44.432 0 39 0 35.175 2.897 35.152 7.038c-.046 3.056 2.738 4.753 4.82 5.772 2.128 1.04 2.852 1.72 2.852 2.648-.022 1.425-1.72 2.082-3.304 2.082-2.196 0-3.373-.338-5.16-1.131l-.725-.34-.77 4.775c1.29.588 3.667 1.11 6.135 1.132 5.772 0 9.53-2.851 9.574-7.265.022-2.422-1.448-4.277-4.617-5.793-1.924-.974-3.103-1.63-3.103-2.626.023-.906.997-1.833 3.169-1.833 1.788-.045 3.102.384 4.097.815l.498.226.748-4.594z" id="d"/><path d="M56.677 14.123c.453-1.222 2.196-5.952 2.196-5.952-.023.045.452-1.245.724-2.037l.384 1.833s1.042 5.092 1.268 6.156h-4.572zM63.467.386h-4.255c-1.312 0-2.31.384-2.875 1.765l-8.17 19.508h5.77l1.155-3.191h7.063c.158.747.656 3.191.656 3.191h5.093L63.467.386z" id="f"/><path d="M19.33.386l-5.387 14.506-.589-2.942c-.996-3.395-4.12-7.083-7.605-8.917l4.935 18.604H16.5L25.147.386H19.33z" id="h"/></defs><g fill="none" fill-rule="evenodd"><g transform="translate(.75)"><use fill="#000" filter="url(#a)" xlink:href="#b"/><use fill="#282D35" xlink:href="#b"/></g><g transform="translate(.75)"><use fill="#000" filter="url(#c)" xlink:href="#d"/><use fill="#282D35" xlink:href="#d"/></g><g transform="translate(.75)"><use fill="#000" filter="url(#e)" xlink:href="#f"/><use fill="#282D35" xlink:href="#f"/></g><g transform="translate(.75)"><use fill="#000" filter="url(#g)" xlink:href="#h"/><use fill="#282D35" xlink:href="#h"/></g><path d="M9.69.386H.84l-.09.43C7.654 2.58 12.226 6.835 14.104 11.95L12.18 2.174C11.864.815 10.89.43 9.69.386z" fill="#3E4551" fill-rule="nonzero"/></g></svg>