<?xml version="1.0" encoding="utf-8"?>
<!-- Generator: Adobe Illustrator 22.0.1, SVG Export Plug-In . SVG Version: 6.00 Build 0)  -->
<svg version="1.1" id="Layer_1" xmlns="http://www.w3.org/2000/svg" xmlns:xlink="http://www.w3.org/1999/xlink" x="0px" y="0px"
	 viewBox="0 0 72 72" style="enable-background:new 0 0 72 72;" xml:space="preserve">
<style type="text/css">
	.st0{fill:#3F434E;}
	.st1{fill:none;}
	.st2{opacity:0.1;fill:#FFFFFF;}
	.st3{opacity:0.12;fill:#FFFFFF;}
</style>
<g>
	<path class="st0" d="M69.5,28.1c-3.6,3.9-7.2,7.6-10.6,11.7c-4.5,5.3-10.4,3.9-13.4-3.4c-2.8-6.6-1.9-4.2-0.5-11.1
		c0.2-1.2,0.8-2.3,0.3-3.5c-0.3-0.3-0.6-0.7-0.9-1c-0.2-0.2-0.4-0.4-0.6-0.6c-0.2-0.2-0.5-0.4-0.7-0.7c0,0,0,0,0,0
		c-0.2-0.2-0.4-0.4-0.5-0.6c0,0,0,0,0-0.1c-0.2-0.2-0.3-0.4-0.5-0.7c0,0,0,0,0-0.1c-0.5-0.7-0.8-1.5-1.1-2.4c0,0,0,0,0,0
		c-0.1-0.3-0.2-0.6-0.2-0.9c0,0,0,0,0,0c-0.1-0.3-0.1-0.6-0.2-0.9c0,0,0,0,0,0h-7.5c0,0.2-0.1,0.4-0.1,0.6c-0.1,0.7-0.3,1.3-0.7,1.9
		c-0.1,0.2-0.1,0.3-0.2,0.5c-0.3,0.7-0.6,1.3-1.1,1.8c-0.2,0.3-0.5,0.7-0.7,1c0,0,0,0,0,0c0,0,0,0,0,0c0,0,0,0,0,0
		c-0.2,0.2-0.4,0.4-0.6,0.6c0,0,0,0,0,0l0,0c-0.6,0.6-1.3,1.2-2,1.6l0,0c0,0,0,0,0,0c-0.3,0.9,0,1.8,0.2,2.6
		c0.4,1.9,0.9,2.9,1.1,4.8c0.7,5.8,0.7,3.4-2.1,8.5c-3.3,5.9-8,6.8-12.3,2.2c-1.6-1.7-3.1-3.5-4.7-5.2c-2.8-2.9-5.3-6.2-8.3-8.7
		c-0.4,1,0.3,1.5,0.5,2.2c3.8,9,7.8,17.9,11.6,27c0.6,1.4,1.3,1.7,2.4,1.7c13.7,0,27.5-0.1,41.2,0c1.4,0,2-0.7,2.6-2.1
		c1.8-4.2,3.6-8.4,5.4-12.6c2.3-5.3,4.6-10.6,7.1-16.2C70.8,26.4,70.2,27.4,69.5,28.1z M36,20c1.6,0,2.9,1.3,2.9,2.9
		c0,1.6-1.3,2.9-2.9,2.9s-2.9-1.3-2.9-2.9C33.2,21.3,34.5,20,36,20z M40.7,51.8c-2.9,0-5.8,0-8.7,0c-1,0-1.1-0.3-0.6-1.2
		c1.6-2.7,3.2-5.4,4.9-8.5c1.8,3.1,3.5,5.8,5.2,8.7C42,51.7,41.4,51.8,40.7,51.8z"/>
	<path class="st1" d="M32,51.8c2.9,0,5.8,0,8.7,0c0.7,0,1.3-0.1,0.8-1c-1.6-2.8-3.3-5.6-5.2-8.7c-1.8,3-3.3,5.8-4.9,8.5
		C30.9,51.5,31,51.8,32,51.8z"/>
</g>
<path class="st2" d="M57,57.2c1.4,0,2-0.7,2.6-2.1c1.8-4.2,3.6-8.4,5.4-12.6c2.3-5.3,4.6-10.6,7.1-16.2c-1.2,0.1-1.8,1.1-2.5,1.9
	c-3.6,3.9-7.2,7.6-10.6,11.7c-4.5,5.3-10.4,3.9-13.4-3.4"/>
<path class="st3" d="M44.3,20.9c-0.2-0.2-0.4-0.4-0.6-0.6c-0.2-0.2-0.5-0.4-0.7-0.7c0,0,0,0,0,0c-0.2-0.2-0.4-0.4-0.5-0.6
	c0,0,0,0,0-0.1c-0.2-0.2-0.3-0.4-0.5-0.7c0,0,0,0,0-0.1c-0.5-0.7-0.8-1.5-1.1-2.4c0,0,0,0,0,0c-0.1-0.3-0.2-0.6-0.2-0.9c0,0,0,0,0,0
	c-0.1-0.3-0.1-0.6-0.2-0.9c0,0,0,0,0,0h-7.5c0,0.2-0.1,0.4-0.1,0.6c-0.1,0.7-0.3,1.3-0.7,1.9c-0.1,0.2-0.1,0.3-0.2,0.5
	c-0.3,0.7-0.6,1.3-1.1,1.8c-0.2,0.3-0.5,0.7-0.7,1c0,0,0,0,0,0c0,0,0,0,0,0c0,0,0,0,0,0c-0.2,0.2-0.4,0.4-0.6,0.6c0,0,0,0,0,0l0,0
	c-0.6,0.6-1.3,1.2-2,1.6l0,0c0,0,0,0,0,0c-0.3,0.9,0,1.8,0.2,2.6c0.4,1.9,1,2.8,1.1,4.8c0.2,6.2,0.9,3.5-2.1,8.5
	c-3.5,5.8-8,6.8-12.3,2.2c-1.6-1.7-3.1-3.5-4.7-5.2c-2.8-2.9-5.3-6.2-8.3-8.7c-0.4,1,0.3,1.5,0.5,2.2c3.8,9,7.8,17.9,11.6,27
	c0.6,1.4,1.3,1.7,2.4,1.7l29.2-31.7c0.2-1.2,0.8-2.3,0.3-3.5C44.9,21.6,44.6,21.3,44.3,20.9z M36,25.8c-1.6,0-2.9-1.3-2.9-2.9
	c0-1.6,1.3-2.9,2.9-2.9s2.9,1.3,2.9,2.9C38.9,24.5,37.6,25.8,36,25.8z"/>
</svg>
