<svg id="Layer_1" data-name="Layer 1" xmlns="http://www.w3.org/2000/svg" viewBox="0 0 1366 768"><defs><style>.cls-1{font-size:351.45px;fill:#d4b958;}.cls-1,.cls-2{font-family:BigSpace, Big Space;}.cls-2{font-size:325.35px;}.cls-12,.cls-13,.cls-2,.cls-3,.cls-6{fill:#fff;}.cls-4{fill:#3d3d3e;}.cls-5{fill:#ddd;}.cls-6{opacity:0.38;}.cls-7{fill:#434344;}.cls-7,.cls-8{opacity:0.5;}.cls-8{fill:#0a0a0a;}.cls-9{fill:none;}.cls-10,.cls-14{fill:#b2b2b2;}.cls-10{opacity:0.12;}.cls-11{opacity:0.4;}.cls-12{opacity:0.35;}.cls-13{opacity:0.1;}.cls-14{opacity:0.07;}</style></defs><title>qqqArtboard 1 copy 3</title><text class="cls-1" transform="translate(519.77 569.73) rotate(-0.06)">game</text><text class="cls-2" transform="translate(87.93 362.95)">ANATOLIA</text><path class="cls-3" d="M789.08,473.19v-1h-.7q-109.65,0-219.31.06l0,21.81c73.33.36,146.67.12,220,.12"/><path class="cls-3" d="M959.38,473.41l-14.28-1c-2.3-.17-4.63-.15-7-.16h-100v22q45.81,0,91.62.06c10,0,19.84-.5,29.69-1.24"/><path class="cls-3" d="M1008.75,489c22-1.6,44-3.62,66-5.47a4.46,4.46,0,0,0,3.32-1.62q-10.53-.8-21-1.57l-48.26-3.44"/><path class="cls-4" d="M458.38,378.86l0,0,.21.08Z"/><path class="cls-5" d="M504.77,509.44h15V495.07c-10.05,2.14-16.75,7.29-23.35,13.67C499,509.86,502,509.44,504.77,509.44Z"/><path class="cls-5" d="M519.73,455.69H503.17c-2.3,0-4.69-.3-6.82.72,2.8,4.77,9.24,7.18,13.07,11.26,2.71,2.9,6.09,4.17,10.31,4.59V455.69Z"/><path class="cls-5" d="M789.1,496.67v-2.46c-73.33,0-146.67.24-220-.12l0,15.23h65.29q77.36,0,154.71,0"/><path class="cls-5" d="M789.06,457.66v-2.1c-5.37,0-104.27,0-154.32,0H569.06v16.72q109.65-.11,219.31-.06h.7"/><path class="cls-6" d="M789.06,456.43v-.88h-220v7q109.65,0,219.31,0h.7"/><path class="cls-5" d="M959.44,493c-9.85.74-19.74,1.27-29.69,1.24q-45.81-.13-91.62-.06v15.16q43.93,0,87.87,0c10.67,0,31.51-.81,33.49-.89"/><path class="cls-5" d="M1008.76,505.12l1.23-.1c38.5-3.45,76.13-10.15,113.37-18.06,6-1.26,12.35-2,19.21-5-23.4-4.87-45.28-9.57-67.49-13.41-22-3.79-44.09-7-66.35-9.2v17.47L1057,480.3q10.53.76,21,1.57a4.46,4.46,0,0,1-3.32,1.62c-22,1.85-43.94,3.87-66,5.47v3.67"/><path class="cls-5" d="M959.33,456.19c-4.67-.13-9.34-.23-14-.25q-53.58-.22-107.17-.25v16.53h100c2.32,0,4.65,0,7,.16l14.28,1"/><rect class="cls-7" x="618.17" y="509.3" width="49.42" height="8.01"/><rect class="cls-7" x="690.24" y="509.3" width="49.42" height="8.01"/><rect class="cls-7" x="860.81" y="509.37" width="49.42" height="8.01"/><polygon class="cls-7" points="1107.29 495.18 1057.9 507.11 1057.9 499.13 1107.29 490.29 1107.29 495.18"/><path class="cls-8" d="M569.06,486.64l-3.82-2a39,39,0,0,1-4.54-3c-.65-.49-1.42-1.39-2.24-2l.38.13c.1,0,.17-.13.07-.18-1.76-.75-3.59-1.35-5.39-2,0,0-.07.06,0,.08,1.41.57,2.82,1.18,4.25,1.72l.3.36c-3.35-.22-6.91.33-10.25.56-.08,0-.08.14,0,.13,3.39-.13,7,0,10.36-.56a24.61,24.61,0,0,1,2,2.68,9.54,9.54,0,0,0-.78.66,5,5,0,0,0-1.24,1.64,0,0,0,0,0,.06,0,5.53,5.53,0,0,1,1.39-1.54,3.64,3.64,0,0,1,.8-.43l.07,0a41.52,41.52,0,0,0,4.21,2.71c.51.29,1,.57,1.54.84a26.2,26.2,0,0,0-3.65,2.2c-.16.1-.3.21-.45.31-.27.38-.57.73-.81,1.12s-.57.95-.81,1.44l.95-.74a15.36,15.36,0,0,0-.6,2.38c-1.68,0-3.39,0-5.08.06a.09.09,0,0,1,0-.05c0-.15-.25-.19-.28,0s0,.07,0,.11l-.84.05a.08.08,0,0,0,0,.16l.8,0a8.18,8.18,0,0,0-.1,1.48,0,0,0,0,0,.07,0,7.54,7.54,0,0,0,.33-1.48c1.69,0,3.39,0,5.07-.1,0,.08,0,.16,0,.23a.05.05,0,0,0,.1,0c0-.09,0-.19.08-.28a.16.16,0,0,0,0-.09c.33-1,.87-2,1.2-3,.31-.23.62-.45.94-.66a25.58,25.58,0,0,1,4.69-2,.89.89,0,0,0,.3-.18,3.26,3.26,0,0,0,1,.3Z"/><path class="cls-8" d="M1008.75,486.85a4.9,4.9,0,0,1-1.13-1.55,3.16,3.16,0,0,1-.23-.89v-.07c.47-.27.92-.57,1.36-.86v-1.56c-.91.62-1.83,1.23-2.79,1.79s-2.17,1-3.14,1.57c.09-.11.2-.21.29-.32s-.09-.21-.18-.12c-1.54,1.46-2.91,3-4.34,4.57,0,0,0,.09.09,0,1.18-1.18,2.42-2.36,3.58-3.57l.54-.18c-1.47,3.14-2.1,6.71-3,10,0,.09.14.13.17,0,1.06-3.27,2.56-6.71,3.06-10.08a38,38,0,0,1,3.9-1.11,5.84,5.84,0,0,0,.5.94,5.06,5.06,0,0,0,1.36,1.53Z"/><path class="cls-8" d="M1008.75,487.78c-.21,0-.41-.09-.62-.11a14.92,14.92,0,0,0-1.65-.1l1.08.53a16,16,0,0,0-2.4.5c-.71-1.52-1.45-3.07-2.26-4.55h0a.14.14,0,0,0-.09-.27l-.1,0c-.13-.25-.27-.5-.41-.74a.08.08,0,0,0-.14.07c.1.25.22.49.32.73a9.11,9.11,0,0,0-1.37.55,0,0,0,0,0,0,.08,8.38,8.38,0,0,0,1.48-.35c.7,1.53,1.5,3,2.29,4.52l-.22.06c-.06,0,0,.1,0,.09l.29-.05a.13.13,0,0,0,.09,0c1.08-.16,2.19-.09,3.26-.24l.37.21Z"/><path class="cls-8" d="M569.06,481.49l-.58-.29c-.72-.87-1-2.71-1.43-3.81-.11-.3-.22-.61-.34-.91a.88.88,0,0,0,.35-.2c.21-.18.22-.33.32-.58a5.89,5.89,0,0,1,1.1-1.31.08.08,0,0,0-.12-.12,10.74,10.74,0,0,1-1.15,1c-.2.11-.41.12-.6.24-.19-.74-.34-1.43-.59-2.12a33.62,33.62,0,0,0-.23-5.14s0,0,0,0a26,26,0,0,0-.14,3.95c0,.1,0,.2,0,.3-.09-.16-.19-.31-.3-.47-1.16-1.62-2.46-3.18-3.76-4.7,0-.06-.16,0-.11.08a54.44,54.44,0,0,1,3.14,4.72,10.87,10.87,0,0,1,.62,1.53.22.22,0,0,0,0,.21c.48,1.68.86,3.4,1.32,5.09-1.59-.88-3.21-1.69-4.88-2.41-.08,0-.11.09,0,.13a42.4,42.4,0,0,1,5,2.73c.17.62.36,1.23.58,1.83a5.38,5.38,0,0,0,.92,1.7,2.64,2.64,0,0,0,.94,0Z"/><path class="cls-8" d="M1008.7,474.93c-.14-.22-.27-.45-.4-.63s-.37-.53-.56-.79a.87.87,0,0,0,.28-.29c.07-.09.19,0,.33.11a1,1,0,0,1-.09-.18,1.51,1.51,0,0,1-.11-.22,1.12,1.12,0,0,1-.11-.25,1.48,1.48,0,0,1-.13-.21,1.22,1.22,0,0,1-.12-.19,3,3,0,0,0-.4.3,20.45,20.45,0,0,0-1.12-1.89c-.29-1.1-.59-2.22-.95-3.3,0,0,0-.07-.05-.1a1.12,1.12,0,0,1-.32-.53.13.13,0,0,1-.06-.07c.18,1,.46,2,.7,3l.06.29a5.11,5.11,0,0,0-.41-.38c-1.53-1.27-3.19-2.45-4.83-3.58-.06-.05-.15,0-.09.11a56.1,56.1,0,0,1,4.25,3.75,11.2,11.2,0,0,1,1,1.33.2.2,0,0,0,0,.21c.9,1.49,1.7,3.06,2.58,4.58a54.09,54.09,0,0,0-5.33-1.08c-.09,0-.09.11,0,.13a41.12,41.12,0,0,1,5.57,1.36l.31.48Z"/><path class="cls-3" d="M509.42,467.67c-3.83-4.08-10.27-6.49-13.07-11.26-2.84-1.14-5.43-.23-8.2.36-5.7,1.22-11.42,2.53-17.26,3.2-17.21,2-34,2-49-6.29C404.55,444,402,430,415.43,417.41c5-4.68,10.27-9.2,15.22-13.91,8.55-8.17,18.38-15.59,25.67-24.49-2.84-1.2-4.56.78-6.46,1.59-26.52,11.34-52.89,22.87-79.46,34.14-4.12,1.74-4.92,3.85-4.91,7,.1,40.51.17,81-.09,121.53,0,4,2.13,5.86,6.27,7.6,12.41,5.21,24.72,10.57,37,15.91,15.7,6.79,31.38,13.62,47.88,20.78-.43-3.66-3.38-5.41-5.52-7.38-11.42-10.53-22.55-21.26-34.63-31.35-15.73-13.15-11.54-30.6,9.89-39.57,19.46-8.14,39.52-5.64,59.59-1.48,3.42.71,6.7,2.36,10.46.94,6.6-6.38,13.3-11.53,23.35-13.67V472.26C515.51,471.84,512.13,470.57,509.42,467.67Zm-125.33,30c-2.54,1.48-2.86-.4-2.86-2.37q0-12.84,0-25.69c0-2.83.8-3.29,3.43-1.68,7.9,4.83,16,9.35,24.95,14.53C400.58,487.88,392.38,492.86,384.09,497.68ZM493.48,490a8.44,8.44,0,1,1,8.43-8.43A8.43,8.43,0,0,1,493.48,490Z"/><path class="cls-9" d="M381.24,469.62q0,12.86,0,25.69c0,2,.32,3.85,2.86,2.37,8.29-4.82,16.49-9.8,25.53-15.21-9-5.18-17.05-9.7-24.95-14.53C382,466.33,381.25,466.79,381.24,469.62Z"/><path class="cls-6" d="M959.33,455.88q-7-.08-14-.1-53.58-.09-107.17-.09v.23c0,.06,0,.14,0,.21h0v6.46c33.07,0,67-.46,100-.46,2.32,0,4.65,0,7,.06l14.28.4Z"/><path class="cls-6" d="M1008.72,466.88,1142.57,482c-23.4-4.87-45.28-9.57-67.49-13.41-22-3.79-44.09-7-66.35-9.2v7.49Z"/><path class="cls-10" d="M365.4,543.29c0,4,2.13,5.86,6.27,7.6,12.41,5.21,24.72,10.57,37,15.91,15.7,6.79,31.38,13.62,47.88,20.78-.43-3.66-3.38-5.41-5.52-7.38-11.42-10.52-22.55-21.26-34.63-31.35-15.73-13.15-11.54-30.6,9.89-39.57"/><path class="cls-10" d="M509.42,467.67c-3.83-4.08-10.27-6.49-13.07-11.26-2.84-1.14-5.43-.23-8.2.36-5.7,1.22-11.42,2.53-17.26,3.2-17.21,2-34,2-49-6.29C404.55,444,402,430,415.43,417.41c5-4.68,10.27-9.2,15.22-13.91,8.55-8.17,18.38-15.59,25.67-24.49-2.84-1.2-4.56.78-6.46,1.59-26.52,11.34-52.89,22.87-79.46,34.14-4.12,1.74-4.92,3.85-4.91,7l120.43,86c3.42.71,6.7,2.36,10.46.94,6.6-6.38,13.3-11.53,23.35-13.67V472.26C515.51,471.84,512.13,470.57,509.42,467.67ZM493.48,490a8.44,8.44,0,1,1,8.43-8.43A8.43,8.43,0,0,1,493.48,490Z"/><g class="cls-11"><polygon class="cls-12" points="667.53 415.83 667.51 395.22 552.87 395.34 537.9 415.83 667.53 415.83"/><path class="cls-12" d="M835,415.5h3.11l0-20.46-114.63.12-15.1,20.67H835C835,415.65,835,415.5,835,415.5Z"/><polygon class="cls-12" points="1089.24 415.5 1074.05 394.79 860.74 395.01 860.76 415.5 1089.24 415.5"/><polygon class="cls-12" points="1278.11 415.83 1278.11 410.87 1277.93 410.87 1277.92 394.4 1163.28 394.52 1147.72 415.83 1278.11 415.83"/></g><path class="cls-3" d="M140.55,501.9c-9,0-17.21,2-24.65,7.36-4.31,3.09-5.84,8.14-9.33,11.74h.08c-2.68-9.61,2.62-21.18,12.38-27.46"/><path class="cls-3" d="M143.46,518.72c4.11,2,9.74.5,13.35-3.39a23.73,23.73,0,0,0,5.9-13.29c.95-6.92,4.63-11.52,11.06-14.19-3.06-.68-9.76,1.56-12.3,3.81-4,3.57-5.83,8.23-6.71,13.32a18.6,18.6,0,0,1-5.28,10.51c-1.73,1.7-4.13,2-6,3.27Z"/><path class="cls-3" d="M199,508.56c4.11,2,9.74.51,13.35-3.39a23.73,23.73,0,0,0,5.9-13.28c.94-6.93,4.63-11.53,11.05-14.19-3.05-.69-9.75,1.55-12.29,3.8-4,3.57-5.83,8.23-6.71,13.32a18.6,18.6,0,0,1-5.28,10.51c-1.73,1.7-4.13,2-6,3.27Z"/><path class="cls-3" d="M183.71,506.27c4.11,2,9.74.51,13.35-3.39A23.73,23.73,0,0,0,203,489.6c.94-6.93,4.63-11.53,11-14.19-3-.68-9.76,1.55-12.29,3.8-4,3.58-5.83,8.23-6.72,13.32A18.46,18.46,0,0,1,189.73,503c-1.74,1.7-4.13,2-6,3.27Z"/><path class="cls-3" d="M183.75,487c4.11,2,9.74.5,13.35-3.39a23.73,23.73,0,0,0,5.9-13.29c.94-6.92,4.63-11.52,11.05-14.19-3.05-.68-9.75,1.56-12.29,3.81-4,3.57-5.83,8.23-6.71,13.32a18.6,18.6,0,0,1-5.28,10.51c-1.73,1.7-4.13,2-6,3.27Z"/><path class="cls-3" d="M164.73,508.56c4.11,2,9.75.51,13.35-3.39a23.66,23.66,0,0,0,5.9-13.28c1-6.93,4.64-11.53,11.06-14.19-3.06-.69-9.76,1.55-12.3,3.8-4,3.57-5.83,8.23-6.71,13.32a18.6,18.6,0,0,1-5.28,10.51c-1.73,1.7-4.13,2-6,3.27Z"/><path class="cls-3" d="M155.26,485.38c-4.11-2-9.75-.51-13.35,3.39a23.7,23.7,0,0,0-5.9,13.28c-.95,6.92-4.63,11.53-11.06,14.19,3.06.68,9.76-1.56,12.3-3.81,4-3.57,5.83-8.22,6.71-13.31a18.54,18.54,0,0,1,5.28-10.51c1.73-1.7,4.13-2,6-3.27Z"/><path class="cls-3" d="M109.65,491.77a18.53,18.53,0,0,0-10.52,5.28c-1.69,1.73-2,4.13-3.27,6h0c-2-4.11-.5-9.75,3.39-13.35a23.66,23.66,0,0,1,13.29-5.9"/><path class="cls-3" d="M212.86,490.82c4.12,2,9.75.51,13.35-3.39a23.66,23.66,0,0,0,5.9-13.28c.95-6.93,4.64-11.53,11.06-14.19-3-.69-9.76,1.55-12.3,3.8-4,3.57-5.82,8.23-6.71,13.32a18.58,18.58,0,0,1-5.27,10.51c-1.74,1.7-4.14,2-6,3.27Z"/><path class="cls-3" d="M177.88,488.67c-4.11,2-9.75.51-13.35-3.39a23.66,23.66,0,0,1-5.9-13.28c-.95-6.93-4.64-11.53-11.06-14.19,3.05-.68,9.76,1.55,12.3,3.8,4,3.58,5.83,8.23,6.71,13.32a18.48,18.48,0,0,0,5.28,10.51c1.73,1.7,4.13,2,6,3.27Z"/><path class="cls-13" d="M109.15,463.64A22.31,22.31,0,0,1,127.39,456"/><path class="cls-3" d="M265.57,503.66q9,5.18,17.93,10.33c.89.51,1.66,1.43,2.8,0,6.65-8.14,13.38-16.2,20.09-24.28L298.92,477c-5.13,6-10.31,12-15.37,18.15-1.06,1.29-1.76,1.56-3.28.66-1.89-1.11-3.81-2.19-5.71-3.3q-8.6-5-17.22-9.95c-.46-.27-1.06-.4-1.33-1.18l9.09-5.27c3.17-1.83,6.33-3.69,9.51-5.52h0c5.74-3.32,11.48-6.62,17.19-10,1.54-.91,2.26-.82,3.12.8,1.86,3.48,3.92,6.84,5.89,10.25l2.41,4c2.14,3.64,4.23,7.3,6.34,11q11,19,22.06,38.09a87.06,87.06,0,0,1-10.82-5.69c-1.31-.79-2-.66-2.95.57-2.05,2.67-4.21,5.28-6.5,7.75-1.36,1.47-1.13,2,.56,3,14.11,8,28.16,16.18,42.24,24.28,1.35.78,2.72,1.51,4.31,2.39-.06-48.63-.13-96.94-.19-145.87,0-1.78,0-3.55,0-5.33l-46.86,56C307.46,455,303.68,448.56,300,442c-.75-1.31-1.28-1.65-2.73-.81l-.9.53q-17,9.89-34,19.74h0c-2.55-.67-5.06-1.56-7.58-2.44-3.8-1.34-7.68-.32-11.37,1a41.75,41.75,0,0,1-29.24.08c-5.79-2.06-11.19-1.67-16.94.39a39.89,39.89,0,0,1-26.5.16c-6.63-2.23-12.73-2.85-19.09.18-4.65,2.21-9.05,2.4-13.5-.95a19,19,0,0,0-10.73-4,22.31,22.31,0,0,0-18.24,7.65,29,29,0,0,0-6.48,14.49c-1.78,10.83,1.25,20.55,10.25,27.39,7.93,6,16.63,6.22,24.88.61,4.93-3.36,9.53-3.31,14.61-.88,5.54,2.65,11.13,2.52,16.9.41a41.37,41.37,0,0,1,28.7-.05,23.47,23.47,0,0,0,16.41,0,41.25,41.25,0,0,1,28.7.08c4.91,1.81,9.87,2.47,14.68.17a24.19,24.19,0,0,1,7.77-2.21M125.38,492.25a9.32,9.32,0,1,1,9.44-9A9.54,9.54,0,0,1,125.38,492.25Zm218.41,25.49-19.11-33c-1.66-2.86-3.29-5.73-5-8.57l23.61-30.35a4.38,4.38,0,0,1,.8-.47c0,24.24.07,48.26.11,72.27Z"/><path class="cls-13" d="M358.26,405.85l-46.86,56"/><path class="cls-14" d="M358.27,411.18c0-1.78,0-3.55,0-5.33l-46.86,56C307.46,455,303.68,448.56,300,442c-.54-.94-1-1.39-1.72-1.24v0h0l-35.91,20.7c-2.55-.67-5.06-1.56-7.58-2.44-3.8-1.34-7.68-.32-11.37,1a41.75,41.75,0,0,1-29.24.08c-5.79-2.06-11.19-1.67-16.94.39a39.89,39.89,0,0,1-26.5.16c-6.63-2.23-12.73-2.85-19.09.18-4.65,2.21-9.05,2.4-13.5-.95a19,19,0,0,0-10.73-4,22.31,22.31,0,0,0-18.24,7.65c20.7,11,51.93,17.94,86.87,17.94A247.61,247.61,0,0,0,232.27,479c41-6.11,62.46-16,65.62-34.56L311,466.81Z"/></svg>